<svg width="1577" height="1603" viewBox="0 0 1577 1603" fill="none" xmlns="http://www.w3.org/2000/svg">
<g clip-path="url(#clip0_2726_1023)">
<rect x="797.861" y="840.392" width="740.035" height="19.0991" transform="rotate(90 797.861 840.392)" fill="#F5F5F5" stroke="#BEBEBE"/>
<path d="M809.823 1590.15L809.823 1581.43C809.823 1580.6 809.151 1579.93 808.323 1579.93L768.301 1579.93C767.473 1579.93 766.801 1580.6 766.801 1581.43L766.801 1590.15L809.823 1590.15Z" fill="#F5F5F5" stroke="#BEBEBE"/>
<rect x="-0.5" y="-0.5" width="6.29482" height="340.032" rx="1.5" transform="matrix(4.37114e-08 -1 -1 -4.37114e-08 957.807 1595.89)" fill="#F5F5F5" stroke="#BEBEBE"/>
<path d="M931.385 1596.24L931.385 1601.03C931.385 1601.86 930.713 1602.53 929.885 1602.53L646.699 1602.53C645.871 1602.53 645.199 1601.86 645.199 1601.03L645.199 1596.24L931.385 1596.24Z" fill="#F5F5F5" stroke="#BEBEBE"/>
</g>
<defs>
<clipPath id="clip0_2726_1023">
<rect width="1577" height="1603" fill="white"/>
</clipPath>
</defs>
</svg>
