<svg width="1577" height="1603" viewBox="0 0 1577 1603" fill="none" xmlns="http://www.w3.org/2000/svg">
<path d="M8.87635 837.856L1.2381 823.185L1071.3 823.184L1066.45 837.153C1065.72 839.265 1063.73 840.681 1061.49 840.681L13.5331 840.682C11.5755 840.682 9.78036 839.592 8.87635 837.856Z" fill="#F5F5F5" stroke="#BEBEBE" stroke-width="1.5"/>
<path d="M1063.48 765.576L1071.12 780.247L1.0542 780.247L5.90235 766.279C6.6355 764.166 8.62622 762.75 10.8622 762.75L1058.82 762.75C1060.78 762.75 1062.57 763.839 1063.48 765.576Z" fill="#F5F5F5" stroke="#BEBEBE" stroke-width="1.5"/>
<rect x="0.752075" y="780.251" width="1070.85" height="42.9258" rx="0.95" fill="#F5F5F5" stroke="#BEBEBE" stroke-width="1.5"/>
<path d="M827.07 801.74C827.07 823.25 809.713 840.682 788.31 840.682C766.906 840.682 749.55 823.25 749.55 801.74C749.55 780.23 766.906 762.799 788.31 762.799C809.713 762.799 827.07 780.23 827.07 801.74Z" fill="#F5F5F5" stroke="#BEBEBE" stroke-width="1.5"/>
<path d="M809.639 801.736C809.639 813.575 800.086 823.167 788.309 823.167C776.532 823.167 766.979 813.575 766.979 801.736C766.979 789.896 776.532 780.304 788.309 780.304C800.086 780.304 809.639 789.896 809.639 801.736Z" fill="#F5F5F5" stroke="#BEBEBE" stroke-width="1.5"/>
</svg>
